<svg xmlns="http://www.w3.org/2000/svg" width="98" height="96" fill="none">
    <g fill="#F89622" filter="url(#a)">
        <path d="M16 0C7.163 0 0 7.163 0 16v64c0 8.837 7.163 16 16 16h65.01c8.837 0 16-7.163 16-16V16c0-8.837-7.163-16-16-16H16Z"/>
        <path d="M16 0C7.163 0 0 7.163 0 16v64c0 8.837 7.163 16 16 16h65.01c8.837 0 16-7.163 16-16V16c0-8.837-7.163-16-16-16H16Z"/>
    </g>
    <defs>
        <filter id="a" width="103.01" height="102" x="-3" y="-3" color-interpolation-filters="sRGB" filterUnits="userSpaceOnUse">
            <feFlood flood-opacity="0" result="BackgroundImageFix"/>
            <feBlend in="SourceGraphic" in2="BackgroundImageFix" result="shape"/>
            <feColorMatrix in="SourceAlpha" result="hardAlpha" values="0 0 0 0 0 0 0 0 0 0 0 0 0 0 0 0 0 0 127 0"/>
            <feOffset dy="-13"/>
            <feGaussianBlur stdDeviation="1.5"/>
            <feComposite in2="hardAlpha" k2="-1" k3="1" operator="arithmetic"/>
            <feColorMatrix values="0 0 0 0 0.58 0 0 0 0 0.350028 0 0 0 0 0.0778167 0 0 0 0.7 0"/>
            <feBlend in2="shape" result="effect1_innerShadow_406_21"/>
            <feColorMatrix in="SourceAlpha" result="hardAlpha" values="0 0 0 0 0 0 0 0 0 0 0 0 0 0 0 0 0 0 127 0"/>
            <feOffset dy="13"/>
            <feGaussianBlur stdDeviation="1.5"/>
            <feComposite in2="hardAlpha" k2="-1" k3="1" operator="arithmetic"/>
            <feColorMatrix values="0 0 0 0 0.9675 0 0 0 0 0.716801 0 0 0 0 0.420056 0 0 0 0.7 0"/>
            <feBlend in2="effect1_innerShadow_406_21" result="effect2_innerShadow_406_21"/>
            <feColorMatrix in="SourceAlpha" result="hardAlpha" values="0 0 0 0 0 0 0 0 0 0 0 0 0 0 0 0 0 0 127 0"/>
            <feOffset dx="13"/>
            <feGaussianBlur stdDeviation="1.5"/>
            <feComposite in2="hardAlpha" k2="-1" k3="1" operator="arithmetic"/>
            <feColorMatrix values="0 0 0 0 0.827451 0 0 0 0 0.482353 0 0 0 0 0.0745098 0 0 0 0.7 0"/>
            <feBlend in2="effect2_innerShadow_406_21" result="effect3_innerShadow_406_21"/>
            <feColorMatrix in="SourceAlpha" result="hardAlpha" values="0 0 0 0 0 0 0 0 0 0 0 0 0 0 0 0 0 0 127 0"/>
            <feOffset dx="-13"/>
            <feGaussianBlur stdDeviation="1.5"/>
            <feComposite in2="hardAlpha" k2="-1" k3="1" operator="arithmetic"/>
            <feColorMatrix values="0 0 0 0 0.825833 0 0 0 0 0.48263 0 0 0 0 0.0763896 0 0 0 0.7 0"/>
            <feBlend in2="effect3_innerShadow_406_21" result="effect4_innerShadow_406_21"/>
        </filter>
    </defs>
</svg>