<svg width="60" height="60" viewBox="0 0 60 60" fill="none" xmlns="http://www.w3.org/2000/svg">
<path d="M0.06375 31.2525C0.7275 47.2106 13.8806 60 30 60C46.1194 60 59.2725 47.2106 59.9362 31.2525C59.9757 31.152 59.9973 31.0454 60 30.9375C60 30.87 59.9756 30.8119 59.9625 30.75C59.9681 30.4987 60 30.2531 60 30C60 13.4588 46.5412 0 30 0C13.4588 0 0 13.4588 0 30C0 30.2531 0.031875 30.4987 0.0375 30.75C0.024375 30.8119 0 30.87 0 30.9375C0 31.05 0.028125 31.1531 0.06375 31.2525ZM46.7269 42.6413C44.1791 41.5837 41.5314 40.7853 38.8237 40.2581C39.12 37.5338 39.2944 34.7044 39.3488 31.8769H48.6862C48.5156 35.7281 47.8312 39.3638 46.7269 42.6413ZM50.5594 31.875H58.0294C57.6988 36.98 55.9715 41.8959 53.0362 46.0856C51.5781 45.0595 50.0372 44.1564 48.4294 43.3856C49.6388 39.8812 50.3831 35.9925 50.5594 31.875ZM23.2294 41.7862C25.469 41.4329 27.7327 41.2537 30 41.25C32.295 41.25 34.5619 41.4412 36.7688 41.7862C35.4675 51.7894 32.625 58.125 30 58.125C27.375 58.125 24.5325 51.7894 23.2294 41.7862ZM26.0775 57.495C20.9194 55.8412 16.5562 50.9869 13.9237 44.4C16.335 43.3915 18.8413 42.627 21.405 42.1181C22.2656 48.6731 23.8388 54.3844 26.0775 57.495ZM23.0138 20.0794C25.3252 20.4394 27.6607 20.6218 30 20.625C32.3393 20.6218 34.6748 20.4394 36.9862 20.0794C37.3088 23.1169 37.5 26.4319 37.5 30H22.5C22.5 26.4319 22.6912 23.1169 23.0138 20.0794ZM37.4719 31.875C37.4271 34.5627 37.2644 37.2472 36.9844 39.9206C34.6736 39.5605 32.3386 39.3781 30 39.375C27.6607 39.3781 25.3251 39.5606 23.0138 39.9206C22.7328 37.2472 22.5702 34.5627 22.5262 31.875H37.4719ZM38.5969 42.1181C41.2294 42.6469 43.74 43.4156 46.0781 44.4C43.4456 50.9869 39.0825 55.8412 33.9244 57.495C36.1613 54.3844 37.7344 48.6731 38.5969 42.1181ZM39.375 30C39.375 26.5575 39.1838 23.07 38.8237 19.7437C41.5987 19.1962 44.2537 18.3937 46.7269 17.3606C48.0094 21.165 48.75 25.4513 48.75 30H39.375ZM38.5969 17.8819C37.7344 11.3269 36.1631 5.61375 33.9225 2.505C39.0806 4.15875 43.4437 9.01312 46.0762 15.6C43.6659 16.6094 41.1602 17.3738 38.5969 17.8819ZM36.7706 18.2137C34.5619 18.5588 32.295 18.75 30 18.75C27.705 18.75 25.4381 18.5588 23.2294 18.2137C24.5325 8.21062 27.375 1.875 30 1.875C32.625 1.875 35.4675 8.21062 36.7706 18.2137ZM21.4031 17.8819C18.8395 17.3727 16.3333 16.6083 13.9219 15.6C16.5544 9.01312 20.9175 4.15875 26.0756 2.505C23.8387 5.61562 22.2656 11.3269 21.4031 17.8819ZM21.1762 19.7437C20.81 23.1502 20.626 26.5739 20.625 30H11.25C11.25 25.4513 11.9906 21.165 13.2731 17.3588C15.7463 18.3938 18.4012 19.1944 21.1762 19.7437ZM20.6512 31.875C20.7056 34.7025 20.88 37.5319 21.1762 40.2581C18.4012 40.8056 15.7463 41.6081 13.2731 42.6413C12.1687 39.3638 11.4844 35.7281 11.3138 31.875H20.6512ZM11.5688 43.3856C9.96194 44.1571 8.42168 45.0602 6.96375 46.0856C4.0282 41.896 2.30089 36.98 1.97063 31.875H9.44062C9.61687 35.9925 10.3612 39.8812 11.5688 43.3856ZM8.08687 47.5875C9.39912 46.6633 10.7829 45.8451 12.225 45.1406C14.1075 49.8 16.8169 53.6681 20.0738 56.2837C15.3752 54.5038 11.2371 51.5017 8.08687 47.5875ZM39.9263 56.2819C43.185 53.6681 45.8925 49.7981 47.775 45.1387C49.2562 45.8587 50.6287 46.6875 51.9131 47.5856C48.764 51.501 44.6256 54.5033 39.9263 56.2819ZM50.625 30C50.625 25.1869 49.8225 20.6494 48.4313 16.6144C50.0812 15.8231 51.615 14.9137 53.0381 13.9144C56.3498 18.6245 58.1263 24.2422 58.125 30H50.625ZM51.915 12.4125C50.6306 13.3106 49.2581 14.1394 47.7769 14.8594C45.8944 10.2 43.185 6.33 39.9281 3.71625C44.6262 5.49713 48.7641 8.49909 51.915 12.4125ZM20.0738 3.71813C16.815 6.33188 14.1075 10.2019 12.225 14.8612C10.783 14.1558 9.39926 13.337 8.08687 12.4125C11.2367 8.49832 15.375 5.49671 20.0738 3.71813ZM6.96375 13.9144C8.42143 14.9402 9.96171 15.8433 11.5688 16.6144C10.1023 20.9242 9.36103 25.4475 9.375 30H1.875C1.875 24.0187 3.76687 18.4781 6.96375 13.9144Z" fill="#F8F8F8"/>
</svg>
