<svg width="52" height="72" viewBox="0 0 52 72" fill="none" xmlns="http://www.w3.org/2000/svg">
<path d="M11.6 17.6923H21.2M11.6 36H40.4M11.6 46.4615H40.4M11.6 56.9231H21.2M6.8 70H45.2C46.473 70 47.6939 69.4489 48.5941 68.4679C49.4943 67.487 50 66.1565 50 64.7692V7.23077C50 5.84348 49.4943 4.51302 48.5941 3.53206C47.6939 2.5511 46.473 2 45.2 2H6.8C5.52696 2 4.30606 2.5511 3.40589 3.53206C2.50571 4.51302 2 5.84348 2 7.23077V64.7692C2 66.1565 2.50571 67.487 3.40589 68.4679C4.30606 69.4489 5.52696 70 6.8 70Z" stroke="#F8F8F8" stroke-width="3.75" stroke-linecap="round" stroke-linejoin="round"/>
<path d="M40.5 19C41.3284 19 42 18.3284 42 17.5C42 16.6716 41.3284 16 40.5 16C39.6716 16 39 16.6716 39 17.5C39 18.3284 39.6716 19 40.5 19Z" fill="#F8F8F8" stroke="#F8F8F8" stroke-width="1.875"/>
</svg>
