<svg width="534" height="749" viewBox="0 0 534 749" fill="none" xmlns="http://www.w3.org/2000/svg">
<rect x="2.5" y="2.5" width="529" height="744" rx="17.5" fill="black" stroke="white" stroke-width="5"/>
<path d="M316 662.78C316 671.064 309.284 677.78 301 677.78H284C275.716 677.78 269 671.064 269 662.78V638.178C269 629.893 275.716 623.178 284 623.178H301C309.284 623.178 316 629.893 316 638.178V662.78Z" fill="#FF4343"/>
<path d="M368 662.602C368 670.886 361.284 677.602 353 677.602H336C327.716 677.602 321 670.887 321 662.602V638C321 629.716 327.716 623 336 623H353C361.284 623 368 629.716 368 638V662.602Z" fill="#00FFF0"/>
<path d="M368 603.602C368 611.886 361.284 618.602 353 618.602H336C327.716 618.602 321 611.887 321 603.602V579C321 570.716 327.716 564 336 564H353C361.284 564 368 570.716 368 579V603.602Z" fill="#00FFF0"/>
<path d="M317 603.602C317 611.886 310.284 618.602 302 618.602H285C276.716 618.602 270 611.887 270 603.602V579C270 570.716 276.716 564 285 564H302C310.284 564 317 570.716 317 579V603.602Z" fill="#00FFF0"/>
<path d="M368 544.602C368 552.886 361.284 559.602 353 559.602H336C327.716 559.602 321 552.887 321 544.602V520C321 511.716 327.716 505 336 505H353C361.284 505 368 511.716 368 520V544.602Z" fill="#00FFF0"/>
<path d="M162 602.602C162 610.886 155.284 617.602 147 617.602H130C121.716 617.602 115 610.887 115 602.602V578C115 569.716 121.716 563 130 563H147C155.284 563 162 569.716 162 578V602.602Z" fill="#05FF00"/>
<path d="M215 602.602C215 610.886 208.284 617.602 200 617.602H183C174.716 617.602 168 610.887 168 602.602V578C168 569.716 174.716 563 183 563H200C208.284 563 215 569.716 215 578V602.602Z" fill="#05FF00"/>
<path d="M523 662.602C523 670.886 516.284 677.602 508 677.602H491C482.716 677.602 476 670.887 476 662.602V638C476 629.716 482.716 623 491 623H508C516.284 623 523 629.716 523 638V662.602Z" fill="#FD6687"/>
<path d="M523 603.602C523 611.886 516.284 618.602 508 618.602H491C482.716 618.602 476 611.887 476 603.602V579C476 570.716 482.716 564 491 564H508C516.284 564 523 570.716 523 579V603.602Z" fill="#FD6687"/>
<path d="M523 544.602C523 552.886 516.284 559.602 508 559.602H491C482.716 559.602 476 552.887 476 544.602V520C476 511.716 482.716 505 491 505H508C516.284 505 523 511.716 523 520V544.602Z" fill="#FD6687"/>
<path d="M162 662.602C162 670.886 155.284 677.602 147 677.602H130C121.716 677.602 115 670.887 115 662.602V638C115 629.716 121.716 623 130 623H147C155.284 623 162 629.716 162 638V662.602Z" fill="#05FF00"/>
<path d="M110 602.602C110 610.886 103.284 617.602 95 617.602H78C69.7157 617.602 63 610.887 63 602.602V578C63 569.716 69.7157 563 78 563H95C103.284 563 110 569.716 110 578V602.602Z" fill="#05FF00"/>
<rect x="369" y="735.943" width="48" height="54.6022" rx="15" transform="rotate(-180 369 735.943)" fill="#FF4343"/>
<rect x="214" y="735.943" width="48" height="54.6022" rx="15" transform="rotate(-180 214 735.943)" fill="#FFDC25"/>
<rect x="162" y="737.13" width="48" height="54.6022" rx="15" transform="rotate(-180 162 737.13)" fill="#FFDC25"/>
<rect x="110" y="737.13" width="48" height="54.6022" rx="15" transform="rotate(-180 110 737.13)" fill="#FFDC25"/>
<rect x="58" y="737.13" width="48" height="54.6022" rx="15" transform="rotate(-180 58 737.13)" fill="#FFDC25"/>
<rect x="266" y="737.13" width="48" height="54.6022" rx="15" transform="rotate(-180 266 737.13)" fill="#FF4343"/>
<rect x="317" y="737.13" width="48" height="54.6022" rx="15" transform="rotate(-180 317 737.13)" fill="#FF4343"/>
<rect x="524" y="735.943" width="48" height="54.6022" rx="15" transform="rotate(-180 524 735.943)" fill="#FFADBF"/>
<rect x="421" y="737.13" width="48" height="54.6022" rx="15" transform="rotate(-180 421 737.13)" fill="#FFADBF"/>
<rect x="472" y="737.13" width="48" height="54.6022" rx="15" transform="rotate(-180 472 737.13)" fill="#FFADBF"/>
<rect x="57" y="618.43" width="47" height="54.6022" rx="15" transform="rotate(-180 57 618.43)" fill="#7945FF"/>
<rect x="110" y="676.593" width="48" height="54.6022" rx="15" transform="rotate(-180 110 676.593)" fill="#7945FF"/>
<rect x="58" y="677.78" width="48" height="54.6022" rx="15" transform="rotate(-180 58 677.78)" fill="#7945FF"/>
</svg>
