<svg xmlns="http://www.w3.org/2000/svg" width="200" height="16" viewBox="0 0 4417 347" fill="none">
    <path fill="#FDE100" d="M0 0h631v347H0V0Z"/>
    <path fill="#4EB748" d="M631 0h631v347H631V0Z"/>
    <path fill="#2BACE2" d="M1262 0h631v347h-631V0Z"/>
    <path fill="#005A9D" d="M1893 0h631v347h-631V0Z"/>
    <path fill="#922B8C" d="M2524 0h631v347h-631V0Z"/>
    <path fill="#EE2733" d="M3155 0h631v347h-631V0Z"/>
    <path fill="#F89622" d="M3786 0h631v347h-631V0Z"/>
    <path fill="#F0AF00" d="M309 155c0 8.284-6.716 15-15 15h-65c-8.284 0-15-6.716-15-15V89c0-8.284 6.716-15 15-15h65c8.284 0 15 6.716 15 15v66Zm105.679 103.309c0 8.285-6.715 15-15 15h-65c-8.284 0-15-6.715-15-15v-66c0-8.284 6.716-15 15-15h65c8.285 0 15 6.716 15 15v66ZM415 155c0 8.284-6.716 15-15 15h-65c-8.284 0-15-6.716-15-15V89c0-8.284 6.716-15 15-15h65c8.284 0 15 6.716 15 15v66ZM309.682 258.998c0 8.284-6.716 15-15 15h-65c-8.285 0-15-6.716-15-15v-66c0-8.284 6.715-15 15-15h65c8.284 0 15 6.716 15 15v66Z"/>
    <path fill="#059B05" d="M975.316 154c0 8.284-6.716 15-15 15h-65c-8.284 0-15-6.716-15-15V88c0-8.284 6.716-15 15-15h65c8.284 0 15 6.716 15 15v66ZM1078 154c0 8.284-6.72 15-15 15h-65c-8.284 0-15-6.716-15-15V88c0-8.284 6.716-15 15-15h65c8.28 0 15 6.716 15 15v66ZM874 258.667c0 8.284-6.716 15-15 15h-65c-8.284 0-15-6.716-15-15v-66c0-8.285 6.716-15 15-15h65c8.284 0 15 6.715 15 15v66Zm101.998-.669c0 8.284-6.716 15-15 15h-65c-8.284 0-15-6.716-15-15v-66c0-8.284 6.716-15 15-15h65c8.284 0 15 6.716 15 15v66Z"/>
    <path fill="#9B0101" d="M3553.32 160c0 8.284-6.72 15-15 15h-65c-8.29 0-15-6.716-15-15V94c0-8.284 6.71-15 15-15h65c8.28 0 15 6.716 15 15v66ZM3451 160c0 8.284-6.72 15-15 15h-65c-8.28 0-15-6.716-15-15V94c0-8.284 6.72-15 15-15h65c8.28 0 15 6.716 15 15v66Zm206 104c0 8.284-6.72 15-15 15h-65c-8.28 0-15-6.716-15-15v-66c0-8.284 6.72-15 15-15h65c8.28 0 15 6.716 15 15v66Zm-103-.002c0 8.284-6.72 15-15 15h-65c-8.29 0-15-6.716-15-15v-66c0-8.284 6.71-15 15-15h65c8.28 0 15 6.716 15 15v66Z"/>
    <path fill="#670167" d="M2884 262.002c0 8.284-6.72 15-15 15h-65c-8.28 0-15-6.716-15-15v-66c0-8.284 6.72-15 15-15h65c8.28 0 15 6.716 15 15v66Zm103-101c0 8.284-6.72 15-15 15h-65c-8.28 0-15-6.716-15-15v-66c0-8.284 6.72-15 15-15h65c8.28 0 15 6.716 15 15v66Zm-204-.334c0 8.285-6.72 15-15 15h-65c-8.28 0-15-6.715-15-15v-66c0-8.284 6.72-15 15-15h65c8.28 0 15 6.716 15 15v66Zm102-.668c0 8.284-6.72 15-15 15h-65c-8.29 0-15-6.716-15-15V94c0-8.284 6.71-15 15-15h65c8.28 0 15 6.716 15 15v66Z"/>
    <path fill="#007ACE" d="M1676 207.002c0 8.284-6.72 15-15 15h-65c-8.28 0-15-6.716-15-15v-66c0-8.284 6.72-15 15-15h65c8.28 0 15 6.716 15 15v66Zm102 0c0 8.284-6.72 15-15 15h-65c-8.28 0-15-6.716-15-15v-66c0-8.284 6.72-15 15-15h65c8.28 0 15 6.716 15 15v66Zm-306 .666c0 8.285-6.72 15-15 15h-65c-8.28 0-15-6.715-15-15v-66c0-8.284 6.72-15 15-15h65c8.28 0 15 6.716 15 15v66Zm102-.668c0 8.284-6.72 15-15 15h-65c-8.29 0-15-6.716-15-15v-66c0-8.284 6.71-15 15-15h65c8.28 0 15 6.716 15 15v66Z"/>
    <path fill="#000475" d="M2265 255.002c0 8.284-6.71 15-15 15h-65c-8.28 0-15-6.716-15-15v-66c0-8.284 6.72-15 15-15h65c8.29 0 15 6.716 15 15v66Zm102-.002c0 8.284-6.72 15-15 15h-65c-8.28 0-15-6.716-15-15v-66c0-8.284 6.72-15 15-15h65c8.28 0 15 6.716 15 15v66Zm-204-101c0 8.284-6.71 15-15 15h-65c-8.28 0-15-6.716-15-15V88c0-8.284 6.72-15 15-15h65c8.29 0 15 6.716 15 15v66Zm0 101c0 8.284-6.72 15-15 15h-65c-8.28 0-15-6.716-15-15v-66c0-8.284 6.72-15 15-15h65c8.28 0 15 6.716 15 15v66Z"/>
    <path fill="#B45700" d="M4149 248.002c0 8.284-6.71 15-15 15h-65c-8.28 0-15-6.716-15-15v-66c0-8.284 6.72-15 15-15h65c8.29 0 15 6.716 15 15v66Zm102-.002c0 8.284-6.72 15-15 15h-65c-8.28 0-15-6.716-15-15v-66c0-8.284 6.72-15 15-15h65c8.28 0 15 6.716 15 15v66Zm-1-105c0 8.284-6.72 15-15 15h-65c-8.28 0-15-6.716-15-15V77c0-8.284 6.72-15 15-15h65c8.28 0 15 6.716 15 15v66Zm-203 105c0 8.284-6.72 15-15 15h-65c-8.28 0-15-6.716-15-15v-66c0-8.284 6.72-15 15-15h65c8.28 0 15 6.716 15 15v66Z"/>
</svg>